<?xml version="1.0" standalone="no"?>
<!DOCTYPE svg PUBLIC "-//W3C//DTD SVG 20010904//EN"
 "http://www.w3.org/TR/2001/REC-SVG-20010904/DTD/svg10.dtd">
<svg version="1.0" xmlns="http://www.w3.org/2000/svg"
 width="1200.000000pt" height="630.000000pt" viewBox="0 0 1200.000000 630.000000"
 preserveAspectRatio="xMidYMid meet">

<g transform="translate(0.000000,630.000000) scale(0.100000,-0.100000)"
fill="#000000" stroke="none">
<path d="M1550 4215 l0 -2085 70 0 70 0 0 2085 0 2085 -70 0 -70 0 0 -2085z"/>
<path d="M9740 5755 l0 -104 -97 -4 -98 -3 98 -2 c89 -2 97 -4 97 -22 0 -19 8
-20 183 -23 l182 -2 -182 -3 c-176 -2 -183 -3 -183 -22 0 -19 7 -20 180 -20
113 0 180 -4 180 -10 0 -6 -67 -10 -180 -10 l-180 0 0 -185 0 -185 345 0 345
0 0 350 0 350 -345 0 -345 0 0 -105z m273 -112 c-51 -2 -135 -2 -185 0 -51 1
-10 3 92 3 102 0 143 -2 93 -3z"/>
<path d="M10602 5823 c2 -10 10 -18 18 -18 8 0 16 8 18 18 2 12 -3 17 -18 17
-15 0 -20 -5 -18 -17z"/>
<path d="M10824 5829 c-8 -14 11 -33 25 -25 6 4 11 14 11 22 0 16 -26 19 -36
3z"/>
<path d="M11050 5820 c0 -23 25 -27 33 -6 7 16 -1 26 -20 26 -7 0 -13 -9 -13
-20z"/>
<path d="M11272 5823 c2 -10 10 -18 18 -18 22 0 18 29 -3 33 -14 3 -18 -1 -15
-15z"/>
<path d="M11494 5829 c-8 -14 11 -33 25 -25 6 4 11 14 11 22 0 16 -26 19 -36
3z"/>
<path d="M11714 5829 c-8 -14 11 -33 25 -25 6 4 11 14 11 22 0 16 -26 19 -36
3z"/>
<path d="M11940 5820 c0 -23 25 -27 33 -6 7 16 -1 26 -20 26 -7 0 -13 -9 -13
-20z"/>
<path d="M10607 5624 c-14 -15 -6 -34 14 -34 14 0 19 5 17 17 -3 18 -20 27
-31 17z"/>
<path d="M10831 5620 c-16 -9 -6 -30 15 -30 15 0 20 25 6 34 -4 2 -14 1 -21
-4z"/>
<path d="M11057 5623 c-4 -3 -7 -12 -7 -20 0 -15 26 -18 34 -4 7 11 -18 33
-27 24z"/>
<path d="M11273 5614 c-7 -19 2 -28 22 -21 19 8 19 23 0 31 -9 3 -18 -1 -22
-10z"/>
<path d="M11497 5624 c-14 -15 -6 -34 14 -34 14 0 19 5 17 17 -3 18 -20 27
-31 17z"/>
<path d="M11721 5620 c-16 -9 -6 -30 15 -30 15 0 20 25 6 34 -4 2 -14 1 -21
-4z"/>
<path d="M11947 5623 c-4 -3 -7 -12 -7 -20 0 -15 26 -18 34 -4 7 11 -18 33
-27 24z"/>
<path d="M6381 5510 l-22 -60 -95 0 -94 0 0 -245 0 -245 25 0 25 0 0 225 0
225 220 0 220 0 -2 -202 -3 -203 -56 -3 c-52 -3 -56 -5 -51 -24 4 -18 11 -20
68 -16 35 2 70 10 76 16 10 10 14 75 16 242 l3 230 -150 0 c-83 0 -151 2 -151
4 0 2 9 26 20 52 11 26 19 48 18 49 -2 1 -12 5 -24 9 -19 6 -24 -1 -43 -54z"/>
<path d="M7327 5454 l6 -76 -96 3 c-95 4 -97 4 -97 -18 0 -22 3 -23 96 -23
l97 0 -5 -92 c-4 -68 -11 -104 -26 -134 -20 -40 -67 -87 -94 -96 -10 -4 -10
-8 1 -21 21 -26 38 -21 86 27 54 55 75 118 75 232 l0 82 31 6 c17 3 42 6 55 6
19 0 24 5 24 25 0 25 -1 25 -55 19 l-55 -7 0 72 c0 69 -1 71 -25 71 l-25 0 7
-76z"/>
<path d="M6972 5423 c-15 -120 -14 -291 1 -358 10 -40 17 -51 35 -53 18 -3 22
1 22 26 0 17 9 60 20 96 20 62 20 86 1 86 -5 0 -14 -21 -21 -46 -11 -38 -15
-43 -23 -28 -18 31 1 265 29 357 4 13 -1 17 -23 17 l-29 0 -12 -97z"/>
<path d="M2980 5256 l0 -246 30 0 30 0 0 105 0 105 45 0 45 0 61 -105 c56 -95
64 -105 90 -105 29 0 29 1 15 28 -8 15 -35 62 -60 105 -25 43 -46 79 -46 81 0
2 10 6 23 10 67 16 105 114 74 188 -23 56 -62 71 -194 76 l-113 5 0 -247z
m236 171 c21 -19 27 -32 27 -67 0 -35 -6 -48 -27 -67 -23 -20 -38 -23 -102
-23 l-74 0 0 90 0 90 74 0 c64 0 79 -3 102 -23z"/>
<path d="M3500 5255 l0 -245 145 0 145 0 0 25 0 25 -115 0 -115 0 0 90 0 89
93 3 c87 3 92 4 95 26 3 21 1 22 -92 22 l-96 0 0 80 0 80 110 0 110 0 0 25 0
25 -140 0 -140 0 0 -245z"/>
<path d="M4014 5268 c-43 -128 -81 -239 -82 -246 -3 -9 5 -12 24 -10 25 3 30
10 49 73 l21 70 95 3 96 3 22 -76 c20 -71 23 -75 51 -75 l29 0 -82 243 c-83
242 -83 242 -114 245 l-30 3 -79 -233z m113 -56 c-38 -2 -71 -1 -74 2 -2 2 12
57 33 122 l37 119 36 -120 37 -120 -69 -3z"/>
<path d="M4490 5256 l0 -246 84 0 c173 0 253 67 264 220 8 113 -29 196 -106
238 -34 19 -64 25 -142 29 l-100 6 0 -247z m210 176 c52 -27 80 -89 80 -177 0
-129 -49 -186 -172 -200 l-58 -7 0 201 0 201 58 0 c36 0 70 -7 92 -18z"/>
<path d="M5050 5255 l0 -245 26 0 26 0 -4 212 c-2 116 -2 205 1 197 2 -8 32
-90 66 -184 84 -230 82 -230 168 7 l66 183 0 -207 1 -208 25 0 25 0 0 245 0
245 -34 0 c-38 0 -37 2 -128 -264 -17 -50 -34 -94 -37 -98 -3 -4 -35 76 -71
178 l-64 184 -33 0 -33 0 0 -245z"/>
<path d="M5680 5255 l0 -245 145 0 145 0 0 25 0 25 -115 0 -115 0 0 90 0 89
93 3 c87 3 92 4 95 26 3 21 1 22 -92 22 l-96 0 0 80 0 80 110 0 110 0 0 25 0
25 -140 0 -140 0 0 -245z"/>
<path d="M10602 5393 c2 -10 10 -18 18 -18 8 0 16 8 18 18 2 12 -3 17 -18 17
-15 0 -20 -5 -18 -17z"/>
<path d="M10824 5399 c-8 -14 11 -33 25 -25 6 4 11 14 11 22 0 16 -26 19 -36
3z"/>
<path d="M11050 5389 c0 -24 23 -21 28 4 2 10 -3 17 -12 17 -10 0 -16 -9 -16
-21z"/>
<path d="M11272 5393 c2 -10 10 -18 18 -18 22 0 18 29 -3 33 -14 3 -18 -1 -15
-15z"/>
<path d="M11494 5399 c-8 -14 11 -33 25 -25 6 4 11 14 11 22 0 16 -26 19 -36
3z"/>
<path d="M11714 5399 c-8 -14 11 -33 25 -25 6 4 11 14 11 22 0 16 -26 19 -36
3z"/>
<path d="M11940 5390 c0 -23 25 -27 33 -6 7 16 -1 26 -20 26 -7 0 -13 -9 -13
-20z"/>
<path d="M6310 5185 c0 -128 1 -135 20 -135 15 0 20 7 20 25 l0 25 110 0 111
0 -3 108 -3 107 -127 3 -128 3 0 -136z m218 23 l3 -68 -91 0 -90 0 0 70 0 71
88 -3 87 -3 3 -67z"/>
<path d="M10607 5194 c-14 -15 -6 -34 14 -34 14 0 19 5 17 17 -3 18 -20 27
-31 17z"/>
<path d="M10831 5190 c-16 -9 -6 -30 15 -30 15 0 20 25 6 34 -4 2 -14 1 -21
-4z"/>
<path d="M11057 5193 c-4 -3 -7 -12 -7 -20 0 -15 26 -18 34 -4 7 11 -18 33
-27 24z"/>
<path d="M11273 5184 c-7 -19 2 -28 22 -21 19 8 19 23 0 31 -9 3 -18 -1 -22
-10z"/>
<path d="M11497 5194 c-14 -15 -6 -34 14 -34 14 0 19 5 17 17 -3 18 -20 27
-31 17z"/>
<path d="M11721 5190 c-16 -9 -6 -30 15 -30 15 0 20 25 6 34 -4 2 -14 1 -21
-4z"/>
<path d="M11947 5193 c-4 -3 -7 -12 -7 -20 0 -15 26 -18 34 -4 7 11 -18 33
-27 24z"/>
<path d="M10160 4959 c0 -24 23 -21 28 4 2 10 -3 17 -12 17 -10 0 -16 -9 -16
-21z"/>
<path d="M10382 4963 c2 -10 10 -18 18 -18 22 0 18 29 -3 33 -14 3 -18 -1 -15
-15z"/>
<path d="M10602 4963 c2 -10 10 -18 18 -18 8 0 16 8 18 18 2 12 -3 17 -18 17
-15 0 -20 -5 -18 -17z"/>
<path d="M10824 4969 c-8 -14 11 -33 25 -25 16 10 13 36 -3 36 -8 0 -18 -5
-22 -11z"/>
<path d="M11050 4959 c0 -24 23 -21 28 4 2 10 -3 17 -12 17 -10 0 -16 -9 -16
-21z"/>
<path d="M11272 4963 c2 -10 10 -18 18 -18 22 0 18 29 -3 33 -14 3 -18 -1 -15
-15z"/>
<path d="M11494 4969 c-8 -14 11 -33 25 -25 16 10 13 36 -3 36 -8 0 -18 -5
-22 -11z"/>
<path d="M11714 4969 c-8 -14 11 -33 25 -25 6 4 11 14 11 22 0 16 -26 19 -36
3z"/>
<path d="M11940 4960 c0 -23 25 -27 33 -6 7 16 -1 26 -20 26 -7 0 -13 -9 -13
-20z"/>
<path d="M10166 4763 c-12 -12 -6 -33 9 -33 8 0 15 6 15 14 0 17 -14 28 -24
19z"/>
<path d="M10383 4754 c-7 -19 2 -28 22 -21 19 8 19 23 0 31 -9 3 -18 -1 -22
-10z"/>
<path d="M10607 4764 c-14 -15 -6 -34 14 -34 14 0 19 5 17 17 -3 18 -20 27
-31 17z"/>
<path d="M10831 4760 c-16 -9 -6 -30 15 -30 15 0 20 25 6 34 -4 2 -14 1 -21
-4z"/>
<path d="M11057 4763 c-4 -3 -7 -12 -7 -20 0 -15 26 -18 34 -4 7 11 -18 33
-27 24z"/>
<path d="M11273 4754 c-7 -19 2 -28 22 -21 19 8 19 23 0 31 -9 3 -18 -1 -22
-10z"/>
<path d="M11497 4764 c-14 -15 -6 -34 14 -34 14 0 19 5 17 17 -3 18 -20 27
-31 17z"/>
<path d="M11721 4760 c-16 -9 -6 -30 15 -30 15 0 20 25 6 34 -4 2 -14 1 -21
-4z"/>
<path d="M11947 4763 c-4 -3 -7 -12 -7 -20 0 -15 26 -18 34 -4 7 11 -18 33
-27 24z"/>
<path d="M5440 4380 l0 -70 -65 0 c-58 0 -65 -2 -65 -20 0 -18 7 -20 65 -20
l65 0 0 -80 0 -80 -75 0 c-68 0 -75 -2 -75 -20 0 -20 7 -20 295 -20 288 0 295
0 295 20 0 18 -7 20 -75 20 l-75 0 0 80 0 80 65 0 c58 0 65 2 65 20 0 18 -7
20 -65 20 l-65 0 0 70 c0 68 -1 70 -25 70 -24 0 -25 -2 -25 -70 l0 -71 -97 3
-98 3 -3 68 c-3 59 -5 67 -22 67 -18 0 -20 -7 -20 -70z m240 -190 l0 -80 -100
0 -100 0 0 80 0 80 100 0 100 0 0 -80z"/>
<path d="M6267 4410 l-15 -40 -96 0 c-89 0 -96 -1 -96 -20 0 -18 7 -20 86 -20
74 0 85 -2 80 -16 -14 -38 -80 -125 -127 -169 -46 -43 -49 -49 -35 -63 15 -15
21 -12 71 38 l55 54 0 -162 c0 -155 1 -162 20 -162 18 0 20 7 20 65 l0 65 146
0 145 0 -3 -42 -3 -43 -53 -3 c-43 -3 -53 -6 -48 -18 3 -9 6 -18 6 -20 0 -8
89 -4 114 6 l26 10 0 190 0 190 -160 0 -160 0 20 40 20 40 180 0 c173 0 180 1
180 20 0 19 -7 20 -171 20 -152 0 -170 2 -165 16 19 48 18 64 -1 64 -14 0 -25
-12 -36 -40z m253 -240 l0 -41 -142 3 c-141 3 -143 3 -146 26 -7 50 -2 52 148
52 l140 0 0 -40z m0 -110 l0 -40 -145 0 -145 0 0 33 c0 19 3 37 7 40 3 4 69 7
145 7 l138 0 0 -40z"/>
<path d="M7337 4433 c-4 -3 3 -22 15 -42 29 -50 31 -51 47 -41 12 7 10 16 -12
49 -27 40 -37 47 -50 34z"/>
<path d="M7823 4383 c-27 -56 -145 -189 -188 -211 -19 -10 -19 -12 -3 -28 16
-16 18 -16 43 0 32 21 145 136 145 148 0 4 54 8 121 8 137 0 131 7 84 -95 -43
-95 -41 -94 -124 -45 -69 41 -73 42 -89 25 -9 -9 -13 -19 -7 -21 6 -2 39 -23
75 -45 l65 -42 -53 -47 c-49 -44 -118 -85 -186 -110 -28 -10 -28 -11 -10 -25
10 -8 25 -15 33 -15 27 0 149 72 204 121 l57 51 26 -21 c26 -20 28 -20 46 -4
19 17 19 18 -12 43 l-32 26 29 49 c16 28 41 80 55 116 33 85 30 87 -124 81
-65 -2 -118 -1 -118 4 0 5 9 24 21 43 22 37 23 36 -8 45 -19 6 -26 0 -50 -51z"/>
<path d="M7257 4413 c-3 -5 7 -27 22 -50 19 -30 30 -40 40 -34 11 7 9 17 -10
50 -21 38 -42 51 -52 34z"/>
<path d="M7090 4349 l0 -61 -120 4 c-119 3 -120 3 -120 -19 0 -23 2 -23 120
-23 l120 0 -2 -162 -3 -163 -47 -3 c-39 -2 -48 -7 -48 -21 0 -14 10 -20 40
-25 55 -9 90 2 101 31 5 13 9 96 9 184 l0 159 115 0 c113 0 115 0 115 23 0 22
-1 22 -115 18 l-115 -3 0 61 c0 58 -1 61 -25 61 -24 0 -25 -3 -25 -61z"/>
<path d="M3843 4388 c-57 -12 -103 -64 -103 -118 0 -55 38 -96 130 -138 94
-43 120 -66 120 -107 0 -85 -122 -114 -206 -50 -34 26 -37 26 -52 10 -16 -15
-15 -18 17 -45 84 -71 237 -57 281 26 21 38 18 98 -6 131 -11 16 -59 48 -115
76 -102 50 -126 77 -110 120 21 55 84 70 156 38 42 -18 51 -20 63 -8 23 23
-29 55 -118 72 -8 1 -34 -2 -57 -7z"/>
<path d="M4923 4390 c-102 -24 -145 -128 -81 -198 13 -13 59 -41 103 -62 95
-44 115 -61 115 -100 0 -42 -9 -59 -41 -75 -50 -26 -133 -11 -181 32 -17 15
-19 15 -32 -3 -45 -60 153 -118 242 -71 65 35 88 106 56 173 -13 28 -33 42
-103 76 -110 53 -131 72 -131 115 0 69 108 94 180 43 29 -20 29 -20 39 -1 9
16 6 23 -14 40 -14 11 -40 23 -58 26 -18 4 -39 8 -47 10 -8 1 -30 -1 -47 -5z"/>
<path d="M4250 4146 l0 -246 26 0 27 0 -5 205 c-3 113 -3 205 -2 205 2 0 13
-19 25 -42 12 -24 64 -116 116 -205 88 -152 97 -163 124 -163 l29 0 0 245 0
245 -25 0 -25 0 0 -207 0 -206 -89 154 c-152 264 -145 254 -174 257 l-27 3 0
-245z"/>
<path d="M8449 4364 c-11 -14 -9 -19 16 -38 17 -11 51 -40 78 -63 26 -24 51
-43 55 -43 10 0 32 22 32 31 0 9 -149 129 -160 129 -4 0 -14 -7 -21 -16z"/>
<path d="M8873 4231 c-35 -61 -117 -145 -188 -191 -61 -40 -209 -100 -247
-100 -21 0 -22 -9 -3 -34 14 -18 16 -18 97 7 145 46 283 145 362 260 32 47 36
58 27 76 -16 29 -23 27 -48 -18z"/>
<path d="M6925 4118 c-15 -24 -43 -61 -61 -84 -25 -31 -30 -44 -21 -53 20 -20
32 -12 79 52 64 88 73 107 57 118 -22 14 -25 12 -54 -33z"/>
<path d="M7245 4150 c-4 -6 13 -41 37 -79 24 -38 48 -76 53 -86 11 -18 45 -11
45 9 0 7 -23 47 -51 89 -47 73 -70 90 -84 67z"/>
<path d="M5460 4005 c-13 -16 -121 -99 -149 -115 -15 -8 -15 -10 1 -26 15 -15
19 -14 60 14 73 50 142 117 134 130 -10 17 -31 15 -46 -3z"/>
<path d="M5655 4009 c-4 -6 -5 -11 -4 -13 19 -11 112 -86 139 -113 32 -29 38
-32 55 -20 10 8 15 19 11 25 -12 19 -167 132 -181 132 -8 0 -17 -5 -20 -11z"/>
<path d="M9200 3265 c0 -86 3 -154 8 -152 123 71 258 150 260 152 4 3 -77 51
-200 119 l-68 38 0 -157z"/>
<path d="M9660 3266 l0 -155 118 68 c64 37 125 72 135 78 16 8 3 19 -85 68
-56 32 -118 66 -135 77 l-33 20 0 -156z"/>
<path d="M10120 3269 c0 -82 2 -149 5 -149 19 0 254 145 247 152 -5 5 -63 40
-130 77 l-122 69 0 -149z"/>
<path d="M5530 3285 l0 -65 -70 0 c-38 0 -70 2 -70 4 0 2 7 23 15 46 20 56 19
62 -6 58 -15 -2 -28 -21 -48 -74 -15 -38 -42 -92 -60 -118 -27 -39 -31 -50
-20 -57 8 -5 17 -9 20 -9 10 0 35 33 53 68 l17 32 84 0 85 0 0 -75 0 -75 -100
0 c-93 0 -100 -1 -100 -20 0 -19 7 -20 100 -20 l101 0 -3 -87 -3 -88 -137 -3
c-130 -2 -138 -4 -138 -22 0 -19 8 -20 295 -20 288 0 295 0 295 20 0 19 -7 20
-135 20 l-135 0 0 90 0 90 110 0 c103 0 110 1 110 20 0 19 -7 20 -110 20
l-110 0 0 75 0 75 120 0 120 0 0 25 0 25 -120 0 -120 0 0 65 c0 58 -2 65 -20
65 -18 0 -20 -7 -20 -65z"/>
<path d="M6350 3290 l0 -60 -139 0 -139 0 -4 -172 c-4 -157 -7 -179 -29 -234
-24 -58 -25 -62 -8 -73 16 -9 21 -7 33 17 23 45 44 132 51 215 l7 78 61 -3 62
-3 -4 -80 c-1 -44 -5 -83 -8 -87 -2 -5 -25 -8 -50 -8 -37 0 -44 -3 -39 -16 3
-9 6 -18 6 -20 0 -2 25 -4 55 -4 41 0 56 4 64 18 5 9 12 68 16 130 l8 112 -87
0 -86 0 0 45 0 46 117 -3 118 -3 7 -60 c4 -33 15 -98 24 -144 l17 -85 -39 -34
c-21 -19 -56 -45 -77 -59 -32 -20 -36 -27 -27 -39 7 -8 17 -14 22 -14 11 0 69
41 112 79 22 20 30 23 34 12 2 -8 20 -31 39 -52 29 -32 42 -39 73 -39 46 0 57
12 70 81 9 47 8 56 -7 67 -16 12 -19 9 -25 -34 -4 -25 -9 -52 -12 -60 -9 -24
-43 -16 -70 17 -42 50 -42 71 -2 137 41 65 78 156 69 166 -18 18 -36 -2 -72
-79 -22 -47 -44 -85 -49 -85 -10 0 -24 67 -38 178 l-7 52 107 0 c99 0 106 1
106 20 0 19 -7 20 -104 20 l-103 0 -7 60 c-6 51 -10 60 -26 60 -18 0 -20 -7
-20 -60z"/>
<path d="M6443 3329 c-9 -9 4 -22 49 -51 41 -27 64 -36 71 -29 14 14 -4 34
-58 66 -50 29 -48 28 -62 14z"/>
<path d="M7028 3283 c-10 -3 -18 -8 -18 -11 0 -7 60 -165 65 -170 6 -7 35 12
35 24 0 15 -50 146 -59 155 -3 3 -14 4 -23 2z"/>
<path d="M8469 3283 c0 -5 0 -28 0 -53 1 -25 -3 -90 -8 -146 -11 -119 -36
-185 -91 -239 -39 -38 -39 -39 -18 -54 20 -14 24 -12 64 32 68 76 86 135 92
315 5 150 4 152 -17 152 -11 0 -21 -3 -22 -7z"/>
<path d="M8640 3046 c0 -278 1 -282 66 -244 86 49 204 152 204 176 0 4 -4 13
-9 21 -8 12 -22 2 -71 -45 -33 -34 -78 -71 -100 -83 l-40 -22 0 220 0 221 -25
0 -25 0 0 -244z"/>
<path d="M7277 3196 c-39 -158 -143 -290 -282 -356 -64 -30 -66 -32 -50 -51
16 -17 20 -17 54 -3 116 49 224 155 280 276 52 113 69 177 50 189 -28 17 -36
8 -52 -55z"/>
<path d="M6844 3240 c-21 -8 -21 -9 14 -99 32 -80 39 -90 57 -85 11 4 21 8 23
9 3 2 -66 177 -71 181 -1 1 -12 -2 -23 -6z"/>
<path d="M7580 3045 l0 -25 265 0 265 0 0 25 0 25 -265 0 -265 0 0 -25z"/>
<path d="M10507 2652 c-119 -119 -217 -222 -217 -227 0 -6 25 -35 55 -65 l55
-55 165 165 165 165 165 -165 165 -165 55 55 c30 30 55 59 55 65 0 10 -430
445 -440 445 -3 0 -103 -98 -223 -218z m438 -21 c113 -113 205 -206 205 -207
0 -2 -21 -23 -47 -48 l-48 -45 -162 162 -163 162 -163 -163 -162 -162 -48 47
-47 48 207 207 c115 115 211 207 215 206 4 -2 100 -95 213 -207z"/>
<path d="M10510 2005 c-121 -121 -220 -224 -220 -230 0 -6 25 -35 55 -65 l54
-53 167 162 167 163 163 -163 164 -164 55 55 c30 30 55 59 55 65 0 5 -99 109
-220 230 l-220 219 -220 -219z m435 -25 l210 -210 -48 -47 -47 -48 -165 165
-165 165 -165 -165 -165 -165 -47 48 -48 47 210 210 c115 116 212 210 215 210
3 0 100 -94 215 -210z"/>
<path d="M7755 1741 c-8 -15 3 -31 21 -31 9 0 14 7 12 17 -4 20 -24 28 -33 14z"/>
<path d="M7976 1735 c-3 -9 1 -18 10 -22 19 -7 28 2 21 22 -8 19 -23 19 -31 0z"/>
<path d="M8203 1734 c-7 -19 2 -28 22 -21 19 8 19 23 0 31 -9 3 -18 -1 -22
-10z"/>
<path d="M8427 1744 c-14 -15 -6 -34 14 -34 14 0 19 5 17 17 -3 18 -20 27 -31
17z"/>
<path d="M8651 1740 c-16 -9 -6 -30 15 -30 15 0 20 25 6 34 -4 2 -14 1 -21 -4z"/>
<path d="M8876 1743 c-12 -12 -6 -33 9 -33 8 0 15 6 15 14 0 17 -14 28 -24 19z"/>
<path d="M9093 1734 c-7 -19 2 -28 22 -21 19 8 19 23 0 31 -9 3 -18 -1 -22
-10z"/>
<path d="M9317 1744 c-14 -15 -6 -34 14 -34 14 0 19 5 17 17 -3 18 -20 27 -31
17z"/>
<path d="M9541 1740 c-16 -9 -6 -30 15 -30 15 0 20 25 6 34 -4 2 -14 1 -21 -4z"/>
<path d="M9760 1730 c0 -19 20 -27 33 -13 8 7 -11 33 -24 33 -5 0 -9 -9 -9
-20z"/>
<path d="M3870 1632 c0 -24 -4 -27 -32 -27 -44 0 -66 -40 -46 -82 11 -24 20
-28 56 -29 l42 -2 0 84 c0 49 -4 84 -10 84 -5 0 -10 -12 -10 -28z m-5 -82 c0
-31 -3 -35 -25 -35 -19 0 -26 6 -28 23 -5 36 5 54 30 50 19 -2 23 -9 23 -38z"/>
<path d="M4040 1577 l0 -83 40 -1 c50 -2 76 28 65 77 -7 30 -41 50 -64 35 -7
-4 -11 5 -11 24 0 21 -5 31 -15 31 -12 0 -15 -16 -15 -83z m75 -27 c0 -29 -4
-36 -22 -38 -20 -3 -23 1 -23 31 0 38 7 49 30 45 10 -2 15 -15 15 -38z"/>
<path d="M4940 1575 c0 -69 3 -85 15 -85 11 0 15 12 15 45 0 33 5 47 16 52 21
8 34 -14 34 -59 0 -21 5 -38 10 -38 12 0 13 90 1 109 -5 8 -19 12 -35 9 -23
-5 -26 -2 -26 23 0 19 -5 29 -15 29 -12 0 -15 -16 -15 -85z"/>
<path d="M5110 1645 c0 -9 5 -15 11 -13 6 2 11 8 11 13 0 5 -5 11 -11 13 -6 2
-11 -4 -11 -13z"/>
<path d="M5442 1649 c2 -6 8 -10 13 -10 5 0 11 4 13 10 2 6 -4 11 -13 11 -9 0
-15 -5 -13 -11z"/>
<path d="M5540 1575 c0 -47 4 -85 9 -85 5 0 11 10 13 22 4 31 23 33 36 3 6
-14 18 -25 26 -25 13 0 11 7 -5 35 -20 33 -20 37 -5 60 22 33 9 32 -26 -2
l-28 -27 0 52 c0 29 -4 52 -10 52 -6 0 -10 -35 -10 -85z"/>
<path d="M4450 1570 c0 -47 4 -80 10 -80 6 0 10 16 10 35 0 33 2 35 35 35 33
0 35 -2 35 -35 0 -19 5 -35 10 -35 6 0 10 33 10 80 0 47 -4 80 -10 80 -5 0
-10 -16 -10 -36 0 -34 -1 -35 -32 -32 -29 3 -33 7 -36 36 -6 64 -22 30 -22
-48z"/>
<path d="M6042 1641 c-21 -13 -31 -73 -18 -112 14 -44 56 -53 80 -17 27 42 -1
87 -45 73 -12 -4 -19 -1 -19 7 0 21 21 38 48 38 13 0 20 4 17 10 -7 12 -45 13
-63 1z m48 -101 c0 -23 -4 -30 -20 -30 -11 0 -23 7 -26 15 -9 23 3 45 26 45
16 0 20 -7 20 -30z"/>
<path d="M6196 1598 c-19 -28 -33 -55 -30 -60 3 -4 18 -8 35 -8 22 0 29 -5 29
-20 0 -11 7 -20 15 -20 8 0 15 8 15 18 0 10 5 23 12 30 9 9 9 12 0 12 -8 0
-12 18 -12 50 0 66 -19 66 -64 -2z m34 -18 c0 -24 -4 -30 -21 -30 -20 0 -20 1
-2 30 9 17 19 30 20 30 2 0 3 -13 3 -30z"/>
<path d="M6342 1638 c-17 -17 -15 -63 3 -78 8 -7 25 -10 40 -6 22 6 24 4 16
-16 -5 -15 -17 -23 -32 -24 -36 0 -38 -19 -3 -22 38 -4 54 14 61 67 9 68 -45
119 -85 79z m57 -27 c8 -14 7 -22 -4 -31 -19 -16 -45 -6 -45 18 0 36 33 45 49
13z"/>
<path d="M6499 1633 c-8 -9 -14 -37 -14 -63 0 -26 6 -54 14 -63 17 -21 54 -22
71 -2 17 20 17 109 1 129 -17 21 -55 20 -72 -1z m56 -63 c0 -48 -2 -55 -20
-55 -16 0 -21 8 -23 44 -4 54 3 73 25 69 15 -3 18 -14 18 -58z"/>
<path d="M3520 1626 c0 -8 -6 -17 -12 -20 -10 -5 -10 -7 0 -12 6 -3 12 -21 12
-39 0 -18 3 -40 6 -49 7 -17 54 -22 54 -6 0 6 -6 10 -14 10 -16 0 -26 21 -26
56 0 17 6 24 20 24 11 0 20 5 20 10 0 6 -9 10 -20 10 -11 0 -20 7 -20 15 0 8
-4 15 -10 15 -5 0 -10 -6 -10 -14z"/>
<path d="M2947 1592 c-21 -23 -22 -66 -1 -86 17 -18 60 -21 69 -6 3 6 -5 10
-19 10 -15 0 -30 8 -36 20 -15 28 4 60 36 60 14 0 22 4 19 10 -10 16 -51 11
-68 -8z"/>
<path d="M3080 1550 c0 -47 3 -60 15 -60 11 0 15 12 15 46 0 37 4 47 20 51 11
3 20 9 20 14 0 13 -24 11 -38 -3 -9 -9 -12 -9 -12 0 0 7 -4 12 -10 12 -6 0
-10 -27 -10 -60z"/>
<path d="M3210 1595 c-17 -20 -17 -69 0 -89 14 -17 65 -22 75 -7 3 5 -9 11
-27 13 -45 4 -49 28 -4 28 42 0 49 8 33 41 -15 29 -58 37 -77 14z m60 -20 c0
-9 -9 -15 -25 -15 -24 0 -32 10 -18 23 12 13 43 7 43 -8z"/>
<path d="M3367 1603 c-14 -14 -6 -19 23 -15 40 6 41 -23 1 -31 -32 -7 -47 -33
-30 -53 6 -7 28 -12 50 -11 38 1 39 2 39 40 0 53 -15 77 -49 77 -15 0 -31 -3
-34 -7z m53 -73 c0 -13 -7 -20 -20 -20 -22 0 -28 25 -7 33 22 10 27 7 27 -13z"/>
<path d="M3646 1594 c-36 -35 -10 -104 39 -104 13 0 27 5 30 10 4 6 -6 10 -23
10 -17 0 -32 6 -36 15 -4 12 3 15 30 15 39 0 51 17 34 49 -13 25 -52 28 -74 5z
m62 -21 c2 -9 -7 -13 -27 -13 -30 0 -39 9 -24 24 11 10 46 3 51 -11z"/>
<path d="M4202 1599 c3 -8 14 -38 24 -67 l19 -53 -25 -19 c-24 -19 -24 -20 -4
-20 28 0 36 11 67 98 19 52 23 72 14 72 -8 0 -20 -21 -28 -47 l-15 -48 -15 44
c-9 25 -21 47 -29 49 -8 3 -11 -1 -8 -9z"/>
<path d="M4646 1588 c-9 -12 -16 -29 -16 -38 0 -27 30 -60 55 -60 32 0 55 25
55 60 0 56 -64 82 -94 38z m68 -20 c14 -23 -3 -53 -30 -53 -20 0 -31 33 -20
61 7 19 35 14 50 -8z"/>
<path d="M4807 1603 c-16 -15 -5 -44 23 -58 39 -20 39 -39 0 -33 -38 6 -51 -9
-16 -18 63 -15 91 37 34 64 -37 17 -35 32 3 32 17 0 28 4 24 10 -7 11 -58 14
-68 3z"/>
<path d="M5110 1550 c0 -33 4 -60 10 -60 6 0 10 27 10 60 0 33 -4 60 -10 60
-6 0 -10 -27 -10 -60z"/>
<path d="M5200 1548 c0 -45 3 -58 15 -58 11 0 15 12 15 45 0 33 5 47 16 52 21
8 34 -14 34 -59 0 -55 18 -47 22 10 3 39 6 47 23 47 17 0 20 -8 23 -47 2 -27
8 -48 13 -48 6 0 9 24 7 58 -3 51 -5 57 -26 60 -13 2 -30 -2 -38 -8 -9 -9 -14
-9 -14 -1 0 6 -18 10 -45 9 l-45 -2 0 -58z"/>
<path d="M5440 1550 c0 -47 3 -60 15 -60 12 0 15 13 15 60 0 47 -3 60 -15 60
-12 0 -15 -13 -15 -60z"/>
<path d="M5707 1603 c-14 -14 -6 -19 23 -15 42 6 40 -21 -2 -33 -26 -8 -33
-15 -33 -35 0 -23 4 -25 48 -26 47 -1 47 0 47 32 0 56 -16 84 -48 84 -16 0
-32 -3 -35 -7z m53 -67 c0 -19 -17 -29 -37 -22 -12 5 -13 9 -3 21 16 19 40 19
40 1z"/>
<path d="M5850 1548 c0 -44 4 -58 14 -58 11 0 16 14 18 48 3 39 6 47 23 47 17
0 20 -8 23 -47 2 -27 8 -48 13 -48 6 0 9 24 7 58 l-3 57 -47 1 -48 1 0 -59z"/>
<path d="M10515 1350 c-121 -122 -222 -223 -224 -226 -7 -6 101 -114 114 -114
6 0 82 72 170 160 l160 160 162 -162 163 -163 55 55 c30 30 55 59 55 65 0 5
-98 108 -218 228 l-218 218 -219 -221z m430 -20 l210 -210 -48 -47 -47 -48
-165 165 -165 165 -165 -165 -165 -165 -47 48 -48 47 210 210 c115 116 212
210 215 210 3 0 100 -94 215 -210z"/>
<path d="M7754 1519 c-8 -14 11 -33 25 -25 16 10 13 36 -3 36 -8 0 -18 -5 -22
-11z"/>
<path d="M7976 1522 c-8 -13 11 -35 23 -28 16 10 14 36 -3 36 -8 0 -17 -4 -20
-8z"/>
<path d="M8202 1513 c4 -21 33 -25 33 -3 0 8 -8 16 -18 18 -14 3 -18 -1 -15
-15z"/>
<path d="M8422 1513 c2 -10 10 -18 18 -18 8 0 16 8 18 18 2 12 -3 17 -18 17
-15 0 -20 -5 -18 -17z"/>
<path d="M8644 1519 c-8 -14 11 -33 25 -25 16 10 13 36 -3 36 -8 0 -18 -5 -22
-11z"/>
<path d="M8870 1509 c0 -24 23 -21 28 4 2 10 -3 17 -12 17 -10 0 -16 -9 -16
-21z"/>
<path d="M9092 1513 c2 -10 10 -18 18 -18 22 0 18 29 -3 33 -14 3 -18 -1 -15
-15z"/>
<path d="M9312 1513 c2 -10 10 -18 18 -18 8 0 16 8 18 18 2 12 -3 17 -18 17
-15 0 -20 -5 -18 -17z"/>
<path d="M9534 1519 c-8 -14 11 -33 25 -25 16 10 13 36 -3 36 -8 0 -18 -5 -22
-11z"/>
<path d="M9760 1509 c0 -24 23 -21 28 4 2 10 -3 17 -12 17 -10 0 -16 -9 -16
-21z"/>
<path d="M7761 1310 c-16 -9 -6 -30 15 -30 15 0 20 25 6 34 -4 2 -14 1 -21 -4z"/>
<path d="M7976 1305 c-3 -9 1 -18 10 -22 19 -7 28 2 21 22 -8 19 -23 19 -31 0z"/>
<path d="M8203 1304 c-7 -19 2 -28 22 -21 19 8 19 23 0 31 -9 3 -18 -1 -22
-10z"/>
<path d="M8427 1314 c-14 -15 -6 -34 14 -34 14 0 19 5 17 17 -3 18 -20 27 -31
17z"/>
<path d="M8645 1311 c-8 -15 3 -31 21 -31 9 0 14 7 12 17 -4 20 -24 28 -33 14z"/>
<path d="M8876 1313 c-12 -12 -6 -33 9 -33 8 0 15 6 15 14 0 17 -14 28 -24 19z"/>
<path d="M9093 1304 c-7 -19 2 -28 22 -21 19 8 19 23 0 31 -9 3 -18 -1 -22
-10z"/>
<path d="M9317 1314 c-14 -15 -6 -34 14 -34 14 0 19 5 17 17 -3 18 -20 27 -31
17z"/>
<path d="M9535 1311 c-8 -15 3 -31 21 -31 9 0 14 7 12 17 -4 20 -24 28 -33 14z"/>
<path d="M9766 1313 c-12 -12 -6 -33 9 -33 8 0 15 6 15 14 0 17 -14 28 -24 19z"/>
<path d="M7302 593 l3 -598 2 593 3 592 440 0 440 0 2 -592 c2 -501 3 -543 8
-273 4 267 7 320 19 320 23 0 25 26 2 32 -19 5 -21 12 -21 94 0 71 3 89 14 89
21 0 31 21 15 30 -7 5 -17 6 -21 4 -4 -3 -8 37 -8 89 0 82 2 95 16 93 25 -2
29 24 5 31 -17 4 -21 13 -21 49 l0 44 -450 0 -450 0 2 -597z"/>
<path d="M7754 1089 c-8 -14 11 -33 25 -25 16 10 13 36 -3 36 -8 0 -18 -5 -22
-11z"/>
<path d="M7976 1092 c-8 -13 11 -35 23 -28 16 10 14 36 -3 36 -8 0 -17 -4 -20
-8z"/>
<path d="M8422 1083 c4 -21 33 -25 33 -3 0 8 -8 16 -18 18 -14 3 -18 -1 -15
-15z"/>
<path d="M8644 1089 c-8 -14 11 -33 25 -25 16 10 13 36 -3 36 -8 0 -18 -5 -22
-11z"/>
<path d="M8870 1079 c0 -24 23 -21 28 4 2 10 -3 17 -12 17 -10 0 -16 -9 -16
-21z"/>
<path d="M9092 1083 c2 -10 10 -18 18 -18 22 0 18 29 -3 33 -14 3 -18 -1 -15
-15z"/>
<path d="M9312 1083 c2 -10 10 -18 18 -18 8 0 16 8 18 18 2 12 -3 17 -18 17
-15 0 -20 -5 -18 -17z"/>
<path d="M9534 1089 c-8 -14 11 -33 25 -25 16 10 13 36 -3 36 -8 0 -18 -5 -22
-11z"/>
<path d="M9760 1080 c0 -11 7 -20 15 -20 8 0 15 9 15 20 0 11 -7 20 -15 20 -8
0 -15 -9 -15 -20z"/>
<path d="M10505 690 l-220 -220 55 -55 c30 -30 59 -55 65 -55 6 0 80 70 165
155 85 85 158 154 162 153 4 -2 58 -52 120 -113 63 -60 135 -130 161 -155 l47
-44 55 54 c30 30 55 58 55 62 0 7 -426 431 -438 436 -4 1 -106 -97 -227 -218z
m440 -10 l210 -210 -48 -47 -47 -48 -165 165 -165 165 -165 -165 -165 -165
-47 48 -48 47 210 210 c115 116 212 210 215 210 3 0 100 -94 215 -210z"/>
<path d="M7755 881 c-8 -15 3 -31 21 -31 9 0 14 7 12 17 -4 20 -24 28 -33 14z"/>
<path d="M7976 875 c-3 -9 1 -18 10 -22 19 -7 28 2 21 22 -8 19 -23 19 -31 0z"/>
<path d="M8427 884 c-14 -15 -6 -34 14 -34 14 0 19 5 17 17 -3 18 -20 27 -31
17z"/>
<path d="M8645 881 c-8 -15 3 -31 21 -31 9 0 14 7 12 17 -4 20 -24 28 -33 14z"/>
<path d="M8876 883 c-12 -12 -6 -33 9 -33 8 0 15 6 15 14 0 17 -14 28 -24 19z"/>
<path d="M9093 874 c-7 -19 2 -28 22 -21 19 8 19 23 0 31 -9 3 -18 -1 -22 -10z"/>
<path d="M9317 884 c-14 -15 -6 -34 14 -34 14 0 19 5 17 17 -3 18 -20 27 -31
17z"/>
<path d="M9535 881 c-8 -15 3 -31 21 -31 9 0 14 7 12 17 -4 20 -24 28 -33 14z"/>
<path d="M9766 883 c-12 -12 -6 -33 9 -33 8 0 15 6 15 14 0 17 -14 28 -24 19z"/>
<path d="M7754 659 c-8 -14 11 -33 25 -25 16 10 13 36 -3 36 -8 0 -18 -5 -22
-11z"/>
<path d="M7976 662 c-8 -13 11 -35 23 -28 16 10 14 36 -3 36 -8 0 -17 -4 -20
-8z"/>
<path d="M8422 653 c2 -10 10 -18 18 -18 22 0 18 29 -3 33 -14 3 -18 -1 -15
-15z"/>
<path d="M8644 659 c-8 -14 11 -33 25 -25 16 10 13 36 -3 36 -8 0 -18 -5 -22
-11z"/>
<path d="M8870 649 c0 -24 23 -21 28 4 2 10 -3 17 -12 17 -10 0 -16 -9 -16
-21z"/>
<path d="M9092 653 c2 -10 10 -18 18 -18 22 0 18 29 -3 33 -14 3 -18 -1 -15
-15z"/>
<path d="M9312 653 c2 -10 10 -18 18 -18 8 0 16 8 18 18 2 12 -3 17 -18 17
-15 0 -20 -5 -18 -17z"/>
<path d="M9534 659 c-8 -14 11 -33 25 -25 16 10 13 36 -3 36 -8 0 -18 -5 -22
-11z"/>
<path d="M9760 649 c0 -24 23 -21 28 4 2 10 -3 17 -12 17 -10 0 -16 -9 -16
-21z"/>
</g>
</svg>
